<?xml version="1.0" encoding="utf-8"?>
<!-- Generator: Adobe Illustrator 23.0.0, SVG Export Plug-In . SVG Version: 6.00 Build 0)  -->
<svg version="1.1"
	 id="svg3336" inkscape:version="0.91 r13725" sodipodi:docname="200-x-200-or.svg" xmlns:cc="http://creativecommons.org/ns#" xmlns:dc="http://purl.org/dc/elements/1.1/" xmlns:inkscape="http://www.inkscape.org/namespaces/inkscape" xmlns:rdf="http://www.w3.org/1999/02/22-rdf-syntax-ns#" xmlns:sodipodi="http://sodipodi.sourceforge.net/DTD/sodipodi-0.dtd" xmlns:svg="http://www.w3.org/2000/svg"
	 xmlns="http://www.w3.org/2000/svg" xmlns:xlink="http://www.w3.org/1999/xlink" x="0px" y="0px" viewBox="0 0 42.6 33.8"
	 style="enable-background:new 0 0 42.6 33.8;" xml:space="preserve">
<style type="text/css">
	.st0{fill-rule:evenodd;clip-rule:evenodd;fill:#7CCC4E;}
</style>
<sodipodi:namedview  bordercolor="#666666" borderopacity="1" gridtolerance="10" guidetolerance="10" id="namedview3338" inkscape:current-layer="svg3336" inkscape:cx="100" inkscape:cy="87.381703" inkscape:pageopacity="0" inkscape:pageshadow="2" inkscape:window-height="801" inkscape:window-maximized="1" inkscape:window-width="1536" inkscape:window-x="-8" inkscape:window-y="-8" inkscape:zoom="3.17" objecttolerance="10" pagecolor="#ffffff" showgrid="false">
	</sodipodi:namedview>
<g>
	<circle class="st0" cx="23.5" cy="17.4" r="1.4"/>
	<circle class="st0" cx="27.8" cy="17.4" r="1.4"/>
	<circle class="st0" cx="32" cy="17.4" r="1.4"/>
	<circle class="st0" cx="23.5" cy="21.7" r="1.4"/>
	<circle class="st0" cx="27.8" cy="21.7" r="1.4"/>
	<circle class="st0" cx="32" cy="21.7" r="1.4"/>
	<path class="st0" d="M34.9,4.3H20.2c-2.4,0-4.3,1.9-4.3,4.3v5.9h-2.8l0-2.8h1.7V9.5h-4.7v-3h3V4.4L5,4.4v2.1h3v3H3.3v2.1H5v15.3h3
		v1.3H6.1v1.6H12v-1.6H10v-1.3h3l0-3.3h2.8v2c0,2.4,1.9,4.3,4.3,4.3h14.7c2.4,0,4.3-1.9,4.3-4.3V8.5C39.1,6.2,37.2,4.3,34.9,4.3z
		 M11,12.8H9v2.1h2v1.3H7.1v-4.7l2,0.1h2V12.8z M36.3,25.6c0,0.8-0.6,1.4-1.4,1.4H20.2c-0.8,0-1.4-0.6-1.4-1.4V8.5
		c0-0.8,0.6-1.4,1.4-1.4h1.4h13.3c0.8,0,1.4,0.6,1.4,1.4V25.6z"/>
	<path class="st0" d="M31.5,9.1h-7.2c-1.1,0-2,0.9-2,2s0.9,2,2,2h7.2c1.1,0,2-0.9,2-2S32.7,9.1,31.5,9.1z"/>
</g>
</svg>
